# xmcd
#
# Track frame offsets: 
#        150
#        18036
#        36565
#        55276
#        75526
#        95620
#        117570
#        138127
#        159645
#        176363
#        194909
#        223473
#        246529
#        267959
#
# Disc length: 3827 seconds
#
# Revision: 0
# Processed by: cddbd v1.5.2PL0 Copyright (c) Steve Scherf et al.
# Submitted via: ExactAudioCopy v1.0b3
#
DISCID=d30ef10e
DTITLE=陈冬霖 - 暖冬 2013精选
DYEAR=2013
DGENRE=Pop
TTITLE0=我们正年轻
TTITLE1=量身定做
TTITLE2=勿忘心安
TTITLE3=Now That She's Gone
TTITLE4=Melody
TTITLE5=别说我的眼泪你无所谓
TTITLE6=不让我的眼泪陪我过夜
TTITLE7=诺(Feat 夜雨)
TTITLE8=原来
TTITLE9=熟能生巧
TTITLE10=小雪
TTITLE11=预感
TTITLE12=不流泪的机场
TTITLE13=夜空中最亮的星
EXTD=
EXTT0=
EXTT1=
EXTT2=
EXTT3=
EXTT4=
EXTT5=
EXTT6=
EXTT7=
EXTT8=
EXTT9=
EXTT10=
EXTT11=
EXTT12=
EXTT13=
PLAYORDER=
